<svg width="40" height="44" viewBox="0 0 40 44" fill="none" xmlns="http://www.w3.org/2000/svg">
<path d="M5.163 10.3699C5.57534 9.6044 6.17044 8.95179 6.8958 8.46965L19.0691 0L6.59608 20.5497C6.59608 20.5497 5.50626 18.7147 5.08123 17.7862C4.55159 16.6188 4.28447 15.3502 4.29858 14.0691C4.3127 12.788 4.60774 11.5255 5.163 10.3699ZM0.138918 24.5457C0.276363 26.5109 0.833622 28.4241 1.77338 30.1572C2.71314 31.8905 4.01371 33.4035 5.588 34.5953L19.0527 43.9499C19.0527 43.9499 10.6284 31.8535 3.5228 19.8169C2.80343 18.5452 2.31982 17.1548 2.09514 15.7123C1.99567 15.0591 1.99567 14.3947 2.09514 13.7415C1.90986 14.0836 1.55023 14.7839 1.55023 14.7839C0.829749 16.2479 0.339068 17.8135 0.0953262 19.426C-0.0449691 21.1303 -0.0303789 22.8439 0.138918 24.5457ZM34.4682 26.1744C34.0321 25.246 32.9532 23.4109 32.9532 23.4109L20.5022 43.9499L32.6754 35.4856C33.4007 35.0035 33.9958 34.351 34.4082 33.5855C34.9635 32.4299 35.2584 31.1673 35.2727 29.8863C35.2868 28.6052 35.0196 27.3365 34.4899 26.169L34.4682 26.1744ZM39.4104 19.4096C39.2729 17.4445 38.7157 15.5312 37.776 13.798C36.8362 12.0649 35.5356 10.5518 33.9613 9.36005L20.5184 0C20.5184 0 28.9373 12.0964 36.0484 24.133C36.7658 25.4051 37.2475 26.7955 37.4706 28.2376C37.57 28.8908 37.57 29.5552 37.4706 30.2084C37.6559 29.8663 38.0155 29.166 38.0155 29.166C38.736 27.702 39.2267 26.1364 39.4703 24.5239C39.6125 22.8197 39.5997 21.1062 39.4323 19.4042L39.4104 19.4096Z" fill="url(#paint0_linear_409_214)"/>
<defs>
<linearGradient id="paint0_linear_409_214" x1="92.5892" y1="58.2775" x2="64.4326" y2="-27.5904" gradientUnits="userSpaceOnUse">
<stop stop-color="#DE82FF"/>
<stop offset="1" stop-color="#7F6AFF"/>
</linearGradient>
</defs>
</svg>
