<svg width="278" height="45" viewBox="0 0 278 45" fill="none" xmlns="http://www.w3.org/2000/svg">
<g clip-path="url(#clip0_9_2)">
<mask id="mask0_9_2" style="mask-type:luminance" maskUnits="userSpaceOnUse" x="0" y="0" width="101" height="45">
<path d="M100.307 0.818604H0.333496V44.8928H100.307V0.818604Z" fill="white"/>
</mask>
<g mask="url(#mask0_9_2)">
<path d="M5.49649 11.1885C5.90884 10.423 6.50394 9.77039 7.22929 9.28825L19.4026 0.818604L6.92957 21.3683C6.92957 21.3683 5.83976 19.5333 5.41473 18.6048C4.88508 17.4374 4.61796 16.1688 4.63207 14.8877C4.6462 13.6066 4.94124 12.3441 5.49649 11.1885ZM0.472414 25.3643C0.609859 27.3295 1.16712 29.2427 2.10688 30.9758C3.04664 32.7091 4.3472 34.2221 5.9215 35.4139L19.3862 44.7685C19.3862 44.7685 10.9619 32.6721 3.8563 20.6355C3.13692 19.3638 2.65332 17.9734 2.42863 16.5309C2.32917 15.8777 2.32917 15.2133 2.42863 14.5601C2.24336 14.9022 1.88373 15.6025 1.88373 15.6025C1.16325 17.0665 0.672564 18.6321 0.428822 20.2446C0.288527 21.9489 0.303117 23.6625 0.472414 25.3643ZM34.8017 26.993C34.3656 26.0646 33.2867 24.2295 33.2867 24.2295L20.8357 44.7685L33.0089 36.3042C33.7342 35.8221 34.3293 35.1696 34.7417 34.4041C35.297 33.2485 35.5919 31.9859 35.6061 30.7049C35.6203 29.4238 35.3531 28.1551 34.8234 26.9876L34.8017 26.993ZM39.7439 20.2282C39.6064 18.2631 39.0492 16.3498 38.1095 14.6166C37.1697 12.8835 35.8691 11.3704 34.2948 10.1787L20.8519 0.818604C20.8519 0.818604 29.2708 12.915 36.3819 24.9516C37.0993 26.2237 37.581 27.6141 37.8041 29.0562C37.9035 29.7094 37.9035 30.3738 37.8041 31.027C37.9894 30.6849 38.349 29.9846 38.349 29.9846C39.0695 28.5206 39.5602 26.955 39.8038 25.3425C39.946 23.6383 39.9332 21.9248 39.7658 20.2228L39.7439 20.2282Z" fill="url(#paint0_linear_9_2)"/>
<path d="M62.5173 32.5304H49.7708V12.3278H62.5173V16.138H52.649L53.8826 14.9867V20.5239H61.5579V24.1423H53.8826V29.8714L52.649 28.7201H62.5173V32.5304Z" fill="url(#paint1_linear_9_2)"/>
<path d="M69.9908 32.5304H65.9064V12.3278H69.9908L80.0784 27.5688H78.8448V12.3278H82.9018V32.5304H78.8448L68.7298 17.3167H69.9908V32.5304Z" fill="url(#paint2_linear_9_2)"/>
<path d="M85.5759 18.1117C85.5759 16.9056 85.8866 15.8457 86.508 14.9319C87.1476 13.9999 88.0156 13.2689 89.1121 12.739C90.2268 12.209 91.4969 11.944 92.9224 11.944C94.3478 11.944 95.5722 12.1999 96.5956 12.7116C97.6372 13.205 98.4413 13.9086 99.0078 14.8223C99.5926 15.736 99.885 16.8234 99.885 18.0843H95.8006C95.7823 17.3168 95.5082 16.7137 94.9783 16.2751C94.4666 15.8365 93.763 15.6172 92.8675 15.6172C91.899 15.6172 91.1223 15.8274 90.5375 16.2477C89.971 16.668 89.6877 17.2437 89.6877 17.9747C89.6877 18.6326 89.8614 19.1442 90.2086 19.5097C90.5741 19.857 91.1314 20.1128 91.8807 20.2773L94.9783 20.9352C96.7509 21.3007 98.0667 21.9311 98.9256 22.8266C99.7845 23.7221 100.214 24.9556 100.214 26.5272C100.214 27.8064 99.9033 28.9303 99.2819 29.8989C98.6606 30.8492 97.7743 31.5893 96.623 32.1193C95.4899 32.631 94.1559 32.8868 92.6208 32.8868C91.1589 32.8868 89.8705 32.6401 88.7557 32.1467C87.6593 31.635 86.8095 30.9223 86.2064 30.0085C85.6034 29.0765 85.2927 27.9983 85.2744 26.7739H89.3862C89.3862 27.5415 89.6695 28.1445 90.236 28.5831C90.8208 29.0034 91.6249 29.2136 92.6482 29.2136C93.7082 29.2136 94.5488 29.0126 95.1701 28.6105C95.7915 28.1902 96.1022 27.6328 96.1022 26.9384C96.1022 26.3171 95.9468 25.8419 95.6361 25.513C95.3255 25.1657 94.8047 24.919 94.0737 24.7728L90.9487 24.115C89.176 23.7495 87.8329 23.0642 86.9191 22.0591C86.0237 21.054 85.5759 19.7382 85.5759 18.1117Z" fill="url(#paint3_linear_9_2)"/>
</g>
</g>
<path d="M112.259 32.2435V13.0035H120.267C124.141 13.0035 126.481 15.0315 126.481 18.3335C126.481 20.3875 125.545 21.8955 123.803 22.6495C125.701 23.2735 126.715 24.7555 126.715 26.9395C126.715 30.3455 124.427 32.2435 120.267 32.2435H112.259ZM119.825 16.6955H116.471V20.8815H119.825C121.333 20.8815 122.165 20.1275 122.165 18.7495C122.165 17.3975 121.359 16.6955 119.825 16.6955ZM120.033 24.4175H116.471V28.5515H120.033C121.593 28.5515 122.399 27.8495 122.399 26.4195C122.399 25.1195 121.567 24.4175 120.033 24.4175ZM136.648 19.2435H140.652V32.2435H136.882L136.622 30.7875C135.816 31.8535 134.204 32.5815 132.644 32.5815C129.68 32.5815 127.86 30.6055 127.86 27.4075V19.2435H131.864V25.9515C131.864 28.0835 132.592 29.0195 134.23 29.0195C135.946 29.0195 136.648 28.1355 136.648 26.0035V19.2435ZM144.593 17.2155C143.319 17.2155 142.305 16.2015 142.305 14.9275C142.305 13.6535 143.319 12.6655 144.593 12.6655C145.841 12.6655 146.855 13.6535 146.855 14.9275C146.855 16.2015 145.841 17.2155 144.593 17.2155ZM142.617 32.2435V19.2435H146.621V32.2435H142.617ZM152.589 32.2435H148.585V12.6395H152.589V32.2435ZM160.012 32.5815C156.268 32.5815 153.85 29.9295 153.85 25.8215C153.85 21.6875 156.32 18.8275 160.272 18.8275C161.884 18.8275 163.418 19.4775 164.172 20.4395V12.6395H168.176V32.2435H164.406L164.198 30.5795C163.496 31.7755 161.884 32.5815 160.012 32.5815ZM160.974 28.9155C162.846 28.9155 164.146 27.6155 164.146 25.6655C164.146 23.7155 162.846 22.4155 160.974 22.4155C159.076 22.4155 157.88 23.7415 157.88 25.6655C157.88 27.5895 159.076 28.9155 160.974 28.9155ZM176.175 32.5815C172.249 32.5815 169.441 29.7215 169.441 25.7175C169.441 21.6615 172.171 18.8275 176.097 18.8275C180.179 18.8275 182.727 21.5055 182.727 25.7435V26.7575L173.289 26.8095C173.523 28.5255 174.485 29.3315 176.253 29.3315C177.761 29.3315 178.827 28.7855 179.113 27.8495H182.779C182.311 30.7355 179.737 32.5815 176.175 32.5815ZM176.123 22.0775C174.537 22.0775 173.653 22.7795 173.341 24.3395H178.749C178.749 22.9615 177.735 22.0775 176.123 22.0775ZM193.002 19.2435V23.0135H191.728C189.44 23.0135 188.062 24.0275 188.062 26.6015V32.2435H184.058V19.2695H187.828L188.036 21.1935C188.582 19.9195 189.726 19.0615 191.468 19.0615C191.936 19.0615 192.456 19.1135 193.002 19.2435ZM208.98 16.6435C205.496 16.6435 203.702 19.0875 203.702 22.8055C203.702 26.6795 205.886 28.6035 208.954 28.6035C212.126 28.6035 213.53 26.8875 213.712 24.8855H208.616V21.1935H217.664V32.2435H214.05L213.816 30.5015C212.776 31.7235 210.696 32.5295 208.408 32.5295C203.026 32.5295 199.256 28.5775 199.256 22.6755C199.256 16.8775 203.13 12.6915 209.084 12.6915C213.686 12.6915 217.222 15.3955 217.664 19.5555H213.244C212.75 17.5275 210.982 16.6435 208.98 16.6435ZM228.552 19.2435V23.0135H227.278C224.99 23.0135 223.612 24.0275 223.612 26.6015V32.2435H219.608V19.2695H223.378L223.586 21.1935C224.132 19.9195 225.276 19.0615 227.018 19.0615C227.486 19.0615 228.006 19.1135 228.552 19.2435ZM232.955 32.5815C230.199 32.5815 228.483 30.9695 228.483 28.4215C228.483 26.0295 230.173 24.5475 233.293 24.3135L236.933 24.0275V23.8195C236.933 22.5455 236.153 21.8695 234.723 21.8695C233.033 21.8695 232.123 22.5195 232.123 23.6895H228.795C228.795 20.7515 231.213 18.8275 234.931 18.8275C238.701 18.8275 240.833 20.9335 240.833 24.6515V32.2435H237.297L237.037 30.5275C236.621 31.7235 234.905 32.5815 232.955 32.5815ZM234.359 29.6175C235.893 29.6175 236.959 28.8635 236.959 27.3815V26.6795L234.931 26.8615C233.189 27.0175 232.565 27.4075 232.565 28.2395C232.565 29.1755 233.137 29.6175 234.359 29.6175ZM246.669 32.2435H242.665V19.2435H246.435L246.695 20.5955C247.501 19.4775 248.983 18.8275 250.673 18.8275C253.767 18.8275 255.561 20.8035 255.561 24.2095V32.2435H251.557V25.1715C251.557 23.5335 250.647 22.4675 249.269 22.4675C247.683 22.4675 246.669 23.5075 246.669 25.1195V32.2435ZM262.645 32.2435H258.641V22.5715H256.171V19.2435H258.641V15.2135H262.645V19.2435H265.115V22.5715H262.645V32.2435ZM264.938 28.1355H268.734C268.786 29.0455 269.462 29.5915 270.684 29.5915C271.932 29.5915 272.504 29.1495 272.504 28.4735C272.504 28.0835 272.296 27.6675 271.334 27.4595L268.942 26.9395C266.55 26.4195 265.38 25.3795 265.38 23.0915C265.38 20.3875 267.694 18.8275 270.814 18.8275C273.83 18.8275 275.936 20.5955 275.936 23.2215H272.14C272.14 22.3375 271.594 21.7395 270.632 21.7395C269.722 21.7395 269.15 22.2075 269.15 22.9095C269.15 23.5075 269.644 23.8455 270.554 24.0535L272.972 24.5735C275.104 25.0415 276.274 26.0295 276.274 28.1095C276.274 30.8915 273.908 32.5815 270.528 32.5815C267.096 32.5815 264.938 30.7615 264.938 28.1355Z" fill="black"/>
<defs>
<linearGradient id="paint0_linear_9_2" x1="92.9227" y1="59.0961" x2="64.7661" y2="-26.7718" gradientUnits="userSpaceOnUse">
<stop stop-color="#DE82FF"/>
<stop offset="1" stop-color="#7F6AFF"/>
</linearGradient>
<linearGradient id="paint1_linear_9_2" x1="92.9227" y1="59.096" x2="64.7661" y2="-26.772" gradientUnits="userSpaceOnUse">
<stop stop-color="#DE82FF"/>
<stop offset="1" stop-color="#7F6AFF"/>
</linearGradient>
<linearGradient id="paint2_linear_9_2" x1="92.9228" y1="59.096" x2="64.7661" y2="-26.772" gradientUnits="userSpaceOnUse">
<stop stop-color="#DE82FF"/>
<stop offset="1" stop-color="#7F6AFF"/>
</linearGradient>
<linearGradient id="paint3_linear_9_2" x1="92.9228" y1="59.096" x2="64.7661" y2="-26.7719" gradientUnits="userSpaceOnUse">
<stop stop-color="#DE82FF"/>
<stop offset="1" stop-color="#7F6AFF"/>
</linearGradient>
<clipPath id="clip0_9_2">
<rect width="99.9731" height="44.0742" fill="white" transform="translate(0.333496 0.818604)"/>
</clipPath>
</defs>
</svg>
